<svg id="Layer_1" data-name="Layer 1" xmlns="http://www.w3.org/2000/svg" viewBox="0 0 500 500"><defs><style>.cls-1{fill:#cb9964;}.cls-2{opacity:0.3;}.cls-3{fill:none;stroke:#000;stroke-linecap:round;stroke-linejoin:round;stroke-width:20.2px;}</style></defs><title>buns</title><path class="cls-1" d="M488.2,226.51c0,71.2-72.62,62.42-162.21,62.42s-162.22,8.78-162.22-62.42S236.39,102.71,326,102.71,488.2,155.31,488.2,226.51Z"/><path class="cls-2" d="M415.23,122.42c19.72,20.36,31.39,45.88,31.39,74.39,0,71.2-72.63,62.42-162.22,62.42-45.18,0-86,2.22-115.44-4.7,18.1,40.63,81.54,34.4,157,34.4,89.59,0,162.21,8.78,162.21-62.42C488.2,181.52,459.19,144,415.23,122.42Z"/><path class="cls-3" d="M280.94,107.37S389.44,125,388.48,186.64"/><path class="cls-3" d="M371,107.37S262.53,125,263.49,186.64"/><path class="cls-1" d="M380.85,325.9c0,81-82.61,71-184.52,71s-184.53,10-184.53-71S94.41,185.07,196.33,185.07,380.85,244.91,380.85,325.9Z"/><path class="cls-2" d="M297.85,207.49c22.43,23.16,35.7,52.19,35.7,84.62,0,81-82.61,71-184.53,71-51.39,0-97.86,2.53-131.32-5.34C38.29,404,110.46,396.9,196.33,396.9c101.91,0,184.52,10,184.52-71C380.85,274.72,347.85,232,297.85,207.49Z"/><path class="cls-3" d="M145.08,190.37s123.42,20.08,122.34,90.17"/><path class="cls-3" d="M247.57,190.37s-123.42,20.08-122.34,90.17"/><path class="cls-3" d="M380.85,325.9c0,81-82.61,71-184.52,71s-184.53,10-184.53-71S94.41,185.07,196.33,185.07,380.85,244.91,380.85,325.9Z"/><path class="cls-3" d="M326,102.71c-71.64,0-132.42,33.63-153.91,83.51,7.93-.76,16-1.15,24.25-1.15,85.82,0,157.95,42.43,178.59,104.2,65.67.1,113.28-5.11,113.28-62.76C488.2,155.31,415.58,102.71,326,102.71Z"/></svg>